<?xml version="1.0" standalone="no"?>
<!DOCTYPE svg PUBLIC "-//W3C//DTD SVG 1.1//EN" "http://www.w3.org/Graphics/SVG/1.1/DTD/svg11.dtd" >
<svg xmlns="http://www.w3.org/2000/svg">
<metadata>Generated by IcoMoon</metadata>
<defs>
<font id="CellGlyphIcon" horiz-adv-x="1024">
<font-face units-per-em="1024" ascent="960" descent="-64" />
<missing-glyph horiz-adv-x="1024" />
<glyph unicode="&#x20;" horiz-adv-x="512" d="" />
<glyph unicode="&#x100;" glyph-name="users" d="M42.667 839.111c0 43.203 35.022 78.222 78.222 78.222h782.224c43.2 0 78.221-35.020 78.221-78.222v-782.224c0-43.2-35.021-78.221-78.221-78.221h-782.224c-43.2 0-78.222 35.021-78.222 78.221v782.224zM512 487.113c86.404 0 156.446 70.042 156.446 156.443s-70.042 156.445-156.446 156.445c-86.403 0-156.445-70.044-156.445-156.445s70.042-156.443 156.445-156.443zM824.947 162.654l-0.060 11.567c0 162.001-150.882 273.779-312.887 273.779-162.004 0-312.89-111.778-312.89-273.779l-0.060-11.546c-0.125-20.719-0.368-60.941 0.061-66.675h625.776c0.431 5.734 0.188 45.939 0.060 66.654z" />
<glyph unicode="&#x101;" glyph-name="explorer" d="M128 13.431v695.309h236.445l101.333-104.296h472.889v-591.013h-135.113v278.123h-540.443v-278.123h-135.111zM296.889-21.333v278.123h472.89v-278.123h-101.333v173.828h-270.224v-173.828h-101.333zM432 13.431v104.299h202.667v-104.299h-202.667zM161.778 813.037v-69.531h236.444l101.333-104.297h405.332v69.531h-405.332l-101.333 104.297h-236.444zM195.555 847.802v69.531h236.445l101.333-104.296h337.779v-69.531h-337.779l-101.333 104.296h-236.445z" />
<glyph unicode="&#xe900;" glyph-name="save" d="M256 789.333h512v-426.667h-512v426.667zM682.667 320h-341.333v-213.333h341.333v213.333zM384 277.333h85.333v-128h-85.333v128zM42.667 832v-768c0-47.125 38.206-85.333 85.333-85.333h768c47.13 0 85.333 38.208 85.333 85.333v768c0 47.125-38.204 85.334-85.333 85.334h-768c-47.128 0-85.333-38.208-85.333-85.334zM128 789.333c0 23.563 19.101 42.667 42.667 42.667h682.667c23.565 0 42.667-19.104 42.667-42.667v-682.666c0-23.561-19.102-42.667-42.667-42.667h-682.667c-23.565 0-42.667 19.102-42.667 42.667v682.666z" />
<glyph unicode="&#xe901;" glyph-name="save_image" d="M896 192c0 0 0 576 0 597.333s-21.333 42.667-42.667 42.667h-682.667c-21.333 0-42.667-21.333-42.667-42.667v-597.333l298.667 341.333 128-170.667 85.333 85.333 256-256zM805.333 682.667c0-48.601-39.398-88-88-88s-88 39.399-88 88c0 48.601 39.398 88 88 88s88-39.399 88-88zM128 917.333c-43.198 0-85.333-42.667-85.333-88 0 0 0-722.133 0-765.333s42.667-85.333 85.333-85.333h768c42.667 0 85.333 42.133 85.333 85.333s0 768 0 768c0 42.667-42.133 85.333-85.333 85.333h-768zM85.333 832c0 21.333 21.333 42.667 42.667 42.667h768c21.333 0 42.667-21.333 42.667-42.667v-768c0-21.333-21.333-42.667-42.667-42.667h-768c-21.333 0-42.667 21.333-42.667 42.667v768z" />
<glyph unicode="&#xe902;" glyph-name="scan_pattern" d="M365.333 682.667h29.333v58.667h-29.333v-58.667zM365.333 653.333v-58.667h-58.667v-29.333h58.667v-58.667h29.333v58.667h58.667v29.333h-58.667v58.667h-29.333zM394.667 594.667v-29.333h-29.333v29.333h29.333zM365.333 477.333v-58.667h29.333v58.667h-29.333zM365.333 330.667v58.667h29.333v-58.667h-29.333zM365.333 301.333h-58.667v29.333h58.667v-29.333zM394.667 301.333v-58.667h-29.333v58.667h29.333zM394.667 301.333h58.667v29.333h-58.667v-29.333zM365.333 213.333h29.333v-58.667h-29.333v58.667zM218.667 594.667v-29.333h58.667v29.333h-58.667zM482.667 594.667h58.667v-29.333h-58.667v29.333zM629.333 594.667h-58.667v-29.333h58.667v-58.667h29.333v58.667h58.667v29.333h-58.667v58.667h-29.333v-58.667zM629.333 594.667h29.333v-29.333h-29.333v29.333zM746.667 594.667v-29.333h58.667v29.333h-58.667zM629.333 682.667h29.333v58.667h-29.333v-58.667zM629.333 418.667v58.667h29.333v-58.667h-29.333zM629.333 389.333v-58.667h-58.667v-29.333h58.667v-58.667h29.333v58.667h58.667v29.333h-58.667v58.667h-29.333zM658.667 330.667v-29.333h-29.333v29.333h29.333zM629.333 213.333h29.333v-58.667h-29.333v58.667zM277.333 330.667v-29.333h-58.667v29.333h58.667zM541.333 330.667h-58.667v-29.333h58.667v29.333zM805.333 330.667v-29.333h-58.667v29.333h58.667zM128 917.333c-43.201 0-85.333-42.133-85.333-85.333v-768c0-43.2 42.132-85.333 85.333-85.333h768c43.2 0 85.333 42.133 85.333 85.333v768c0 43.201-42.133 85.333-85.333 85.333h-768zM170.667 704c0 48.601 36.732 85.333 85.333 85.333h512c48.602 0 85.333-36.732 85.333-85.333v-512c0-48.602-36.732-85.333-85.333-85.333h-512c-48.601 0-85.333 36.732-85.333 85.333v512z" />
<glyph unicode="&#xe903;" glyph-name="devices" d="M512 917.333l-234.667-118.569 234.667-118.568 234.667 118.568-234.667 118.569zM277.333 759.242l215.113-108.688v-237.136l-215.113 108.687v237.137zM531.554 413.419l215.113 108.687v237.137l-215.113-108.688v-237.136zM277.333 482.581l-234.667-118.566 234.667-118.571 234.667 118.571 234.667-118.571 234.667 118.571-234.667 118.566-234.667-118.566-234.667 118.566zM42.667 324.493l215.111-108.689v-237.137l-215.111 108.689v237.137zM296.889-21.333l215.111 108.689 215.113-108.689v237.137l-215.113 108.689-215.111-108.689v-237.137zM981.333 87.356l-215.113-108.689v237.137l215.113 108.689v-237.137z" />
<glyph unicode="&#xe904;" glyph-name="incubator" d="M853.333 789.333h-682.667v-469.333h682.667v469.333zM42.667 917.333v-938.667h938.667v938.667h-938.667zM85.333 874.667h853.333v-853.333h-853.333v853.333zM682.667 170.667c0-35.345-28.655-64-64-64s-64 28.655-64 64c0 35.345 28.655 64 64 64s64-28.655 64-64zM853.333 170.667c0-35.345-28.655-64-64-64s-64 28.655-64 64c0 35.345 28.655 64 64 64s64-28.655 64-64z" />
<glyph unicode="&#xe905;" glyph-name="imager" d="M609.783 526.222c10.799 0 19.554 8.756 19.554 19.556s-8.755 19.555-19.554 19.555c-10.799 0-19.558-8.756-19.558-19.555s8.759-19.556 19.558-19.556zM479.398 643.551c0-9-7.296-16.3-16.294-16.3-9.002 0-16.297 7.3-16.297 16.3s7.295 16.295 16.297 16.295c8.998 0 16.294-7.295 16.294-16.295zM375.111 448c10.799 0 19.555 8.755 19.555 19.554s-8.756 19.558-19.555 19.558c-10.8 0-19.556-8.759-19.556-19.558s8.756-19.554 19.556-19.554zM593.476 301.329c0-18.001-14.592-32.589-32.593-32.589-17.997 0-32.589 14.588-32.589 32.589 0 18.005 14.592 32.593 32.589 32.593 18.001 0 32.593-14.588 32.593-32.593zM365.326 285.030c9 0 16.295 7.3 16.295 16.299s-7.295 16.294-16.295 16.294c-9.002 0-16.297-7.296-16.297-16.294s7.295-16.299 16.297-16.299zM854.221 448c0 189.005-153.216 342.222-342.221 342.222s-342.222-153.217-342.222-342.222c0-189.005 153.217-342.221 342.222-342.221s342.221 153.216 342.221 342.221zM707.554 545.778c0-54.002-43.776-97.778-97.775-97.778-54.003 0-97.779 43.776-97.779 97.778s43.776 97.777 97.779 97.777c53.999 0 97.775-43.776 97.775-97.777zM512 643.555c0-26.999-21.888-48.889-48.889-48.889s-48.889 21.89-48.889 48.889c0 26.999 21.888 48.889 48.889 48.889s48.889-21.891 48.889-48.889zM433.778 467.554c0-32.397-26.266-58.667-58.667-58.667s-58.667 26.27-58.667 58.667c0 32.4 26.266 58.668 58.667 58.668s58.667-26.268 58.667-58.668zM658.667 301.333c0-54.003-43.776-97.779-97.779-97.779-53.999 0-97.776 43.776-97.776 97.779s43.777 97.779 97.776 97.779c54.003 0 97.779-43.776 97.779-97.779zM365.333 252.446c-27.001 0-48.889 21.888-48.889 48.887s21.888 48.887 48.889 48.887c27.001 0 48.889-21.888 48.889-48.887s-21.888-48.887-48.889-48.887zM42.667 832v-768c0-43.204 42.133-85.333 85.333-85.333h768c43.2 0 85.333 42.129 85.333 85.333v768c0 43.203-42.133 85.333-85.333 85.333h-768c-43.2 0-85.333-42.131-85.333-85.333zM903.113 448c0-216.004-175.108-391.113-391.113-391.113s-391.111 175.108-391.111 391.113c0 216.004 175.107 391.111 391.111 391.111s391.113-175.107 391.113-391.111z" />
<glyph unicode="&#xe906;" glyph-name="floi8" d="M128 917.333c-43.2 0-85.333-42.135-85.333-85.333v-768c0-43.2 42.133-85.333 85.334-85.333h768c43.2 0 85.333 42.133 85.333 85.333v768c0 43.198-42.133 85.333-85.333 85.333h-768zM85.335 341.333v533.337h106.668v-533.337l-42.668-213.325h-21.334l-42.666 213.325zM170.663 53.346c0-17.673-14.325-32.009-32-32.009-17.672 0-32 14.336-32 32.009 0 17.677 14.328 31.996 32 31.996 17.674 0 32-14.319 32-31.996zM597.329 53.346c0-17.673-14.327-32.009-32-32.009s-32 14.336-32 32.009c0 17.677 14.327 31.996 32 31.996s32-14.319 32-31.996zM512 341.333v533.337h106.667v-533.337l-42.667-213.325h-21.333l-42.667 213.325zM917.333 53.346c0-17.673-14.327-32.009-32-32.009s-32 14.336-32 32.009c0 17.677 14.327 31.996 32 31.996s32-14.319 32-31.996zM832 341.333v533.337h106.667v-533.337l-42.667-213.325h-21.333l-42.667 213.325zM746.671 309.333c0-17.673-14.327-32.004-32-32.004s-32 14.332-32 32.004c0 17.677 14.327 32 32 32s32-14.323 32-32zM661.333 597.34v277.33h106.667v-277.33l-42.667-213.336h-21.333l-42.667 213.336zM320.004 309.333c0-17.673-14.325-32.004-32-32.004-17.672 0-32 14.332-32 32.004 0 17.677 14.327 32 32 32 17.675 0 32-14.323 32-32zM234.665 597.34v277.33h106.668v-277.33l-42.668-213.336h-21.334l-42.665 213.336z" />
<glyph unicode="&#xe907;" glyph-name="reagentxchange" d="M42.667 832v-768c0-43.2 42.133-85.333 85.333-85.333h768c43.2 0 85.333 42.133 85.333 85.333v768c0 43.198-42.133 85.333-85.333 85.333h-768c-43.2 0-85.333-42.135-85.333-85.333zM492.446 663.111l-78.224-78.223-97.777 97.778-39.111-39.111v156.445h156.445l-39.111-39.111 97.779-97.777zM551.113 448l-19.558 19.554 78.225 78.224 97.775-97.778-351.999-352-78.222 78.221 273.779 273.779zM472.887 448l19.558-19.554-78.224-78.225-97.777 97.779 352.001 352 78.221-78.222-273.779-273.778zM707.554 213.333l39.113 39.113v-156.446h-156.446l39.113 39.113-97.779 97.775 78.225 78.225 97.775-97.779z" />
<glyph unicode="&#xe908;" glyph-name="cellcounter" d="M448 533.333v42.667h85.333v-213.333h42.667v-42.667h-128v42.667h42.667v170.667h-42.667zM469.333 64v128h85.333v-128h-85.333zM128 917.333c-43.2 0-85.333-42.135-85.333-85.333v-768c0-43.2 42.133-85.333 85.333-85.333h768c43.2 0 85.333 42.133 85.333 85.333v768c0 43.198-42.133 85.333-85.333 85.333h-768zM316.445 526.222c0 43.202 35.022 78.223 78.222 78.223h234.667c43.2 0 78.221-35.021 78.221-78.223v-156.443c0-43.204-35.021-78.225-78.221-78.225h-234.667c-43.2 0-78.222 35.021-78.222 78.225v156.443zM426.667 874.667h170.667v-128h-128v-42.667h128v-42.667h-170.667v126.060l128 1.94v42.667h-128v42.667zM426.667 21.333v213.333h170.667v-213.333h-170.667z" />
<glyph unicode="&#xe909;" glyph-name="refrigerator" d="M170.667 789.333h256v-42.667h-42.667c0 0 0-500.663 0-554.667s-31.331-85.333-85.333-85.333c-54.002 0-85.333 31.33-85.333 85.333v554.667h-42.667v42.667zM341.333 576h-85.333v-384c0-21.333 21.333-42.667 42.667-42.667s42.667 21.333 42.667 42.667v384zM128 917.333h768c43.204 0 85.333-42.132 85.333-85.333v-768c0-43.2-42.129-85.333-85.333-85.333h-768c-43.203 0-85.333 42.133-85.333 85.333v768c0 43.201 42.131 85.333 85.333 85.333zM128 832v-128h42.667v-510.221c0-75.601 52.399-129.779 128-129.779s128 54.178 128 129.779v510.221h42.667v128h-341.333zM554.667 704h42.667v-510.221c0-75.601 52.399-129.779 128-129.779s128 54.178 128 129.779v510.221h42.667v128h-341.333v-128zM597.333 789.333h256v-42.667h-42.667v-554.667c0-54.003-31.33-85.333-85.333-85.333s-85.333 31.33-85.333 85.333v554.667h-42.667v42.667zM768 576h-85.333v-384c0-21.333 21.333-42.667 42.667-42.667s42.667 21.333 42.667 42.667v384z" />
<glyph unicode="&#xe90a;" glyph-name="rover" d="M128 917.333h768c43.204 0 85.333-42.132 85.333-85.333v-768c0-43.2-42.129-85.333-85.333-85.333h-768c-43.202 0-85.333 42.133-85.333 85.333v768c0 43.201 42.131 85.333 85.333 85.333zM853.333 746.667h-682.667v-128h682.667v128zM170.667 576c-21.602 0-42.667-21.066-42.667-42.667v-384c0-21.602 21.065-42.667 42.667-42.667h14.371c-9.215 19.396-14.371 41.097-14.371 64 0 82.475 66.859 149.333 149.333 149.333s149.333-66.859 149.333-149.333c0-22.903-5.155-44.604-14.371-64h114.074c-9.216 19.396-14.37 41.097-14.37 64 0 82.475 66.859 149.333 149.333 149.333s149.333-66.859 149.333-149.333c0-22.903-5.154-44.604-14.37-64h14.37c21.602 0 42.667 21.065 42.667 42.667v384c0 21.6-21.065 42.667-42.667 42.667h-682.667zM426.667 170.667c0 58.91-47.756 106.667-106.667 106.667s-106.667-47.757-106.667-106.667c0-58.91 47.756-106.667 106.667-106.667s106.667 47.757 106.667 106.667zM704 64c58.91 0 106.667 47.757 106.667 106.667s-47.757 106.667-106.667 106.667c-58.91 0-106.667-47.757-106.667-106.667s47.757-106.667 106.667-106.667z" />
<glyph unicode="&#xe90b;" glyph-name="storage" d="M128 917.333c-43.202 0-85.333-42.132-85.333-85.333v-768c0-43.2 42.131-85.333 85.333-85.333h768c43.204 0 85.333 42.133 85.333 85.333v768c0 43.201-42.129 85.333-85.333 85.333h-768zM128 832h768v-85.333h-85.333v-85.333h-85.333v85.333h-85.333v-85.333h-85.333v85.333h-85.333v-85.333h-85.333v85.333h-85.333v-85.333h-85.333v85.333h-85.333v85.333zM128 618.667h768v-85.333h-85.333v-85.333h-85.333v85.333h-85.333v-85.333h-85.333v85.333h-85.333v-85.333h-85.333v85.333h-85.333v-85.333h-85.333v85.333h-85.333v85.333zM896 405.333v-85.333h-85.333v-85.333h-85.333v85.333h-85.333v-85.333h-85.333v85.333h-85.333v-85.333h-85.333v85.333h-85.333v-85.333h-85.333v85.333h-85.333v85.333h768zM128 192h768v-85.333h-85.333v-42.667h-85.333v42.667h-85.333v-42.667h-85.333v42.667h-85.333v-42.667h-85.333v42.667h-85.333v-42.667h-85.333v42.667h-85.333v85.333z" />
<glyph unicode="&#xe90c;" glyph-name="device_management" d="M276.406 798.765l233.738 118.569 233.741-118.569-233.741-118.568-233.738 118.568zM490.667 650.554l-214.261 108.688v-237.137l214.261-108.687v237.136zM529.621 413.419l214.263 108.687v237.137l-214.263-108.688v-237.136zM256.928 215.804l-214.261 108.689v-237.137l214.261-108.689v237.137zM295.884-21.333l214.26 108.689v237.137l-214.26-108.689v-237.137zM276.406 482.581l-233.739-118.566 233.739-118.571 233.738 118.571-233.738 118.566zM981.333 234.671c0-13.534-1.34-26.752-3.895-39.522h-39.97c-3.682-14.502-9.34-28.207-16.666-40.785l28.262-28.672c-7.185-11.004-15.424-21.235-24.576-30.549l-0.405-0.41c-9.178-9.284-19.264-17.647-30.114-24.939l-28.258 28.672c-12.399-7.433-25.907-13.175-40.205-16.909v-40.55c-12.587-2.59-25.613-3.951-38.955-3.951s-26.368 1.361-38.959 3.951v40.55c-14.298 3.733-27.802 9.476-40.201 16.909l-28.258-28.672c-10.752 7.223-20.757 15.501-29.867 24.687l-0.909 0.922c-9.050 9.246-17.203 19.388-24.32 30.289l28.262 28.668c-7.33 12.582-12.983 26.283-16.666 40.789h-39.97c-2.556 12.77-3.895 25.988-3.895 39.522s1.34 26.752 3.895 39.522h39.97c3.682 14.507 9.335 28.203 16.666 40.785l-28.262 28.668c7.117 10.906 15.27 21.047 24.32 30.289l0.909 0.922c9.109 9.186 19.115 17.468 29.867 24.687l28.258-28.672c12.399 7.437 25.903 13.175 40.201 16.913v40.55c12.591 2.59 25.617 3.951 38.959 3.951s26.368-1.361 38.955-3.951v-40.55c14.298-3.738 27.806-9.476 40.205-16.913l28.258 28.672c10.846-7.287 20.937-15.65 30.114-24.939l0.405-0.41c9.152-9.31 17.391-19.541 24.576-30.549l-28.262-28.672c7.326-12.578 12.983-26.278 16.666-40.781h39.97c2.556-12.77 3.895-25.988 3.895-39.522zM786.551 155.627c43.029 0 77.914 35.388 77.914 79.044s-34.884 79.044-77.914 79.044c-43.029 0-77.914-35.388-77.914-79.044s34.884-79.044 77.914-79.044z" />
<glyph unicode="&#xe90d;" glyph-name="tools" d="M128 917.333c-43.2 0-85.333-42.131-85.333-85.333v-768c0-43.204 42.133-85.333 85.333-85.333h768c43.2 0 85.333 42.129 85.333 85.333v768c0 43.203-42.133 85.333-85.333 85.333h-768zM577.92 760.889v-97.921l68.877-32.642 68.873 32.642v97.921l21.807-16.533c38.848-29.457 54.925-78.327 40.627-123.488-17.067-53.94-65.997-93.61-124.809-101.573-15.202-2.058-29.116-9.463-38.835-20.725l-47.407-53.791 45.303-42.94h20.177c9.131 0 17.89-3.439 24.35-9.562l147.836-140.126c26.893-25.493 26.893-66.829 0-92.318l-5.914-5.606c-26.893-25.489-70.502-25.489-97.399 0l-137.749 130.569c-12.919 12.241-20.173 28.847-20.173 46.157v5.606l-39.125 37.082-195.059-221.333c-12.9-14.946-36.595-16.064-51.004-2.411l-20.172 19.119c-12.408 11.763-13.499 30.481-2.54 43.469l213.225 246.443-249.699 236.678 34.437 32.642 246.298-233.449 37.111 42.897c5.939 7.037 8.542 16.090 7.198 25.008l-15.108 100.265v5.6c0 17.312 7.253 33.917 20.173 46.163l48.7 46.158z" />
<glyph unicode="&#xe90e;" glyph-name="vector" d="M128 917.333c-43.203 0-85.333-42.132-85.333-85.333v-768c0-43.2 42.13-85.333 85.333-85.333h768c43.204 0 85.333 42.133 85.333 85.333v768c0 43.201-42.129 85.333-85.333 85.333h-768zM192 874.667c51.604 0 94.65-36.646 104.532-85.333h87.468v42.667l85.333-64-85.333-64v42.667h-87.468c-9.883-48.688-52.928-85.333-104.532-85.333-58.91 0-106.667 47.756-106.667 106.667s47.756 106.667 106.667 106.667zM576 234.667l-64 85.333h42.667v343.467c-48.687 9.883-85.333 52.928-85.333 104.533 0 58.91 47.757 106.667 106.667 106.667s106.667-47.756 106.667-106.667c0-51.604-36.646-94.65-85.333-104.533v-343.467h42.667l-64-85.333zM576 234.667c51.605 0 94.652-36.646 104.533-85.333h172.8v42.667l85.333-64-85.333-64v42.667h-172.8c-9.882-48.687-52.928-85.333-104.533-85.333-58.91 0-106.667 47.757-106.667 106.667s47.757 106.667 106.667 106.667zM640 768c0-35.346-28.655-64-64-64s-64 28.654-64 64c0 35.346 28.655 64 64 64s64-28.654 64-64zM192 704c35.346 0 64 28.654 64 64s-28.654 64-64 64c-35.346 0-64-28.654-64-64s28.654-64 64-64zM576 64c35.345 0 64 28.655 64 64s-28.655 64-64 64c-35.345 0-64-28.655-64-64s28.655-64 64-64z" />
<glyph unicode="&#xe90f;" glyph-name="systemstat" d="M42.667 832v-768c0-43.2 42.13-85.333 85.333-85.333h768c43.204 0 85.333 42.133 85.333 85.333v768c0 43.201-42.129 85.333-85.333 85.333h-768c-43.203 0-85.333-42.132-85.333-85.333zM341.333 789.333c0 23.564 19.103 42.667 42.667 42.667h256c23.565 0 42.667-19.103 42.667-42.667v-42.667h170.667l-170.667-170.667v-42.667h170.667l-170.667-170.667v-42.667h170.667l-170.667-170.667v-42.667c0-23.565-19.102-42.667-42.667-42.667h-256c-23.564 0-42.667 19.102-42.667 42.667v42.667l-170.667 170.667h170.667v42.667l-170.667 170.667h170.667v42.667l-170.667 170.667h170.667v42.667zM597.333 661.333c0-47.128-38.204-85.333-85.333-85.333s-85.333 38.205-85.333 85.333c0 47.128 38.205 85.333 85.333 85.333s85.333-38.205 85.333-85.333zM512 362.667c-47.129 0-85.333 38.204-85.333 85.333 0 47.128 38.205 85.333 85.333 85.333s85.333-38.205 85.333-85.333c0-47.13-38.204-85.333-85.333-85.333zM597.333 234.667c0-47.13-38.204-85.333-85.333-85.333s-85.333 38.204-85.333 85.333c0 47.13 38.205 85.333 85.333 85.333s85.333-38.204 85.333-85.333zM512 618.667c23.565 0 42.667 19.103 42.667 42.667s-19.102 42.667-42.667 42.667c-23.565 0-42.667-19.103-42.667-42.667s19.102-42.667 42.667-42.667zM512 405.333c23.565 0 42.667 19.102 42.667 42.667s-19.102 42.667-42.667 42.667c-23.565 0-42.667-19.102-42.667-42.667s19.102-42.667 42.667-42.667zM554.667 234.667c0 23.565-19.102 42.667-42.667 42.667s-42.667-19.102-42.667-42.667c0-23.565 19.102-42.667 42.667-42.667s42.667 19.102 42.667 42.667z" />
<glyph unicode="&#xe910;" glyph-name="eventlog" d="M554.667 533.333v-128h-85.333v128h85.333zM128 917.333h768c43.204 0 85.333-42.132 85.333-85.333v-768c0-43.2-42.129-85.333-85.333-85.333h-768c-43.203 0-85.333 42.133-85.333 85.333v768c0 43.201 42.131 85.333 85.333 85.333zM810.667 789.333h-597.333v-42.667h597.333v42.667zM213.333 704v-42.667h597.333v42.667h-597.333zM810.667 277.333h-597.333v-42.667h597.333v42.667zM810.667 192h-597.333v-42.667h597.333v42.667zM426.667 106.667h-213.333v-42.667h213.333v42.667zM256 576h-42.667v-213.333h170.667v42.667h-128v170.667zM597.333 576h-170.667v-213.333h170.667v213.333zM682.667 405.333v128h128v42.667h-170.667v-213.333h170.667v128h-85.333v-42.667h42.667v-42.667h-85.333z" />
<glyph unicode="&#xe911;" glyph-name="edit_profile" d="M128 917.333c-43.2 0-85.333-42.131-85.333-85.333v-768c0-43.204 42.133-85.333 85.333-85.333h768c43.2 0 85.333 42.129 85.333 85.333v768c0 43.203-42.133 85.333-85.333 85.333h-768zM405.333 721.778c0-43.2-35.022-78.223-78.222-78.223-43.203 0-78.223 35.022-78.223 78.223s35.020 78.222 78.223 78.222c43.2 0 78.222-35.022 78.222-78.222zM483.554 487.113l0.030-5.786c0.064-10.359 0.188-30.46-0.030-33.327h-312.887c-0.215 2.85-0.096 22.767-0.031 33.173v0.162l0.031 5.777c0 80.999 75.441 136.887 156.445 136.887 81.001 0 156.443-55.888 156.443-136.887zM554.667 789.333h298.667v-42.667h-298.667v42.667zM554.667 661.333h298.667v-42.667h-298.667v42.667zM554.667 533.333h170.667v-42.667h-170.667v42.667zM170.667 362.667h682.667v-42.667h-682.667v42.667zM170.667 234.667h682.667v-42.667h-682.667v42.667zM170.667 106.667h341.333v-42.667h-341.333v42.667z" />
<glyph unicode="&#xe912;" glyph-name="logout" d="M128 917.333h768c43.2 0 85.333-42.131 85.333-85.333v-768c0-43.204-42.133-85.333-85.333-85.333h-768c-43.2 0-85.333 42.129-85.333 85.333v768c0 43.203 42.133 85.333 85.333 85.333zM426.667 618.667l-256 170.667v-512l256-170.667v512zM682.667 789.333h-469.333l64-42.667h362.667v-128h42.667v170.667zM469.333 320v-42.667h213.333v128h-42.667v-85.333h-170.667zM768 640v-64l42.667-42.667h-298.667v-42.667h298.667l-42.667-42.667v-64l128 128-128 128z" />
<glyph unicode="&#xe913;" glyph-name="moveto" d="M981.333 917.333h-341.333v-85.333h256v-768h-256v-85.333h341.333v938.667zM42.667 362.667v170.667h341.333v128l213.333-213.333-213.333-213.333v128h-341.333z" />
<glyph unicode="&#xe914;" glyph-name="imager_settings" d="M128 917.333c-42.667 0-85.333-42.667-85.333-85.333v-768c0-42.667 42.667-85.333 85.333-85.333h768c42.667 0 85.333 42.667 85.333 85.333v768c0 42.667-42.667 85.333-85.333 85.333h-768zM824.887 565.333c0-172.804-140.083-312.887-312.887-312.887s-312.889 140.083-312.889 312.887c0 172.804 140.086 312.889 312.889 312.889s312.887-140.085 312.887-312.889zM463.111 712c27.001 0 48.889 21.89 48.889 48.889s-21.888 48.888-48.889 48.888c-27 0-48.888-21.89-48.888-48.888s21.888-48.889 48.888-48.889zM479.398 760.884c0-9-7.296-16.3-16.294-16.3-9.002 0-16.297 7.3-16.297 16.3s7.294 16.295 16.297 16.295c8.998 0 16.294-7.295 16.294-16.295zM433.777 584.889c0-32.399-26.266-58.667-58.667-58.667s-58.667 26.268-58.667 58.667 26.267 58.667 58.667 58.667c32.401 0 58.667-26.269 58.667-58.667zM394.667 584.889c0 10.799-8.756 19.555-19.556 19.555s-19.555-8.756-19.555-19.555c0-10.8 8.755-19.556 19.555-19.556s19.556 8.756 19.556 19.556zM609.779 565.333c53.999 0 97.775 43.776 97.775 97.777s-43.776 97.778-97.775 97.778c-54.003 0-97.779-43.776-97.779-97.778s43.776-97.777 97.779-97.777zM609.783 643.556c-10.799 0-19.558 8.756-19.558 19.555s8.759 19.556 19.558 19.556c10.799 0 19.554-8.756 19.554-19.556s-8.755-19.555-19.554-19.555zM658.667 418.667c0-54.003-43.776-97.779-97.779-97.779-53.999 0-97.777 43.776-97.777 97.779s43.778 97.778 97.777 97.778c54.003 0 97.779-43.775 97.779-97.778zM560.883 386.074c18.001 0 32.593 14.588 32.593 32.589 0 18.005-14.592 32.593-32.593 32.593-17.997 0-32.593-14.588-32.593-32.593 0-18.001 14.596-32.589 32.593-32.589zM414.223 418.667c0-26.999-21.888-48.887-48.889-48.887s-48.889 21.888-48.889 48.887c0 26.999 21.888 48.887 48.889 48.887s48.889-21.888 48.889-48.887zM365.326 402.364c9 0 16.295 7.3 16.295 16.299s-7.296 16.294-16.295 16.294c-9.001 0-16.297-7.296-16.297-16.294s7.296-16.299 16.297-16.299zM576.009 192h298.658c35.345 0 64-28.655 64-64s-28.655-64-64-64h-298.658c-19.46-25.907-50.445-42.667-85.342-42.667s-65.88 16.759-85.341 42.667h-255.992c-35.346 0-64 28.655-64 64s28.654 64 64 64h255.992c19.461 25.907 50.444 42.667 85.341 42.667s65.882-16.759 85.342-42.667zM597.333 128c0-7.305-0.734-14.438-2.133-21.333h279.467c11.78 0 21.333 9.553 21.333 21.333s-9.553 21.333-21.333 21.333h-279.467c1.399-6.895 2.133-14.029 2.133-21.333z" />
<glyph unicode="&#xe915;" glyph-name="container_editor" d="M42.667 832c0 42.667 42.667 85.333 85.333 85.333h768c42.667 0 85.333-42.667 85.333-85.333v-768c0-42.667-42.667-85.333-85.333-85.333h-768c-42.667 0-85.333 42.667-85.333 85.333v768zM682.667 832h-341.333v-85.333h42.667v-170.667l-226.959-306.483c-18.766-22.519-29.041-50.901-29.041-80.213 0-69.205 56.099-125.303 125.302-125.303h517.394c69.205 0 125.303 56.098 125.303 125.303 0 29.312-10.274 57.694-29.043 80.213l-226.957 306.483v170.667h42.667v85.333zM469.333 746.667h85.333v-202.667l142.221-181.333h-369.775l142.221 181.333v202.667z" />
<glyph unicode="&#xe916;" glyph-name="new_project" d="M42.667 21.333h938.667v682.667h-426.667l-170.667 170.667h-341.333v-853.333zM469.333 576h85.333v-170.667h170.667v-85.333h-170.667v-170.667h-85.333v170.667h-170.667v85.333h170.667v170.667z" />
<glyph unicode="&#xe917;" glyph-name="project_close" d="M981.333 21.333h-938.667v853.333h341.333l128-128h469.333v-725.333z" />
<glyph unicode="&#xe918;" glyph-name="project_open" d="M981.333 459.636l-161.839-395.636h-712.092l161.839 395.636h712.093zM819.494 525.576h-582.621l-194.207-461.576v725.333h291.31l129.471-131.879h356.047v-131.879z" />
<glyph unicode="&#xe919;" glyph-name="new_folder" d="M160 789.333v85.333h224l170.667-128h426.667v-570.18l-156.446-155.153h-782.221v682.667h277.333l149.333-128h355.554v-438.302l71.113 75.635v448h-384l-170.667 128h-181.333zM384 448v-128h-128v-85.333h128v-128h85.333v128h128v85.333h-128v128h-85.333z" />
<glyph unicode="&#xe91a;" glyph-name="folder" d="M160 789.333v85.333h224l170.667-128h426.667v-570.18l-156.446-155.153h-782.221v682.667h277.333l149.333-128h355.554v-438.302l71.113 75.635v448h-384l-170.667 128h-181.333z" />
<glyph unicode="&#xe91b;" glyph-name="add" d="M469.333 618.667v-128h-128v-85.333h128v-128h85.333v128h128v85.333h-128v128h-85.333zM128 917.333h768c47.13 0 85.333-38.208 85.333-85.333v-768c0-47.125-38.204-85.333-85.333-85.333h-768c-47.128 0-85.333 38.208-85.333 85.333v768c0 47.125 38.205 85.333 85.333 85.333zM512 789.333l-341.333-341.333 341.333-341.333 341.333 341.333-341.333 341.333z" />
<glyph unicode="&#xe91c;" glyph-name="new_source" d="M981.333 64v768h-821.333l-117.333-117.333v-650.667h938.667zM213.333 746.667v-85.333h-85.333v85.333h85.333zM384 746.667v-85.333h-85.333v85.333h85.333zM725.333 746.667v-85.333h-85.333v85.333h85.333zM213.333 576v-85.333h-85.333v85.333h85.333zM896 576v-85.333h-85.333v85.333h85.333zM128 405.333h85.333v-85.333h-85.333v85.333zM810.667 746.667h85.333v-85.333h-85.333v85.333zM810.667 405.333h85.333v-85.333h-85.333v85.333zM128 234.667h85.333v-85.333h-85.333v85.333zM896 234.667v-85.333h-85.333v85.333h85.333zM469.333 661.333h85.333v-170.667h170.667v-85.333h-170.667v-170.667h-85.333v170.667h-170.667v85.333h170.667v170.667zM298.667 234.667h85.333v-85.333h-85.333v85.333zM640 234.667h85.333v-85.333h-85.333v85.333z" />
<glyph unicode="&#xe91d;" glyph-name="add_source" d="M160 832h821.333v-768h-938.667v650.667l117.333 117.333zM128 746.667v-85.333h85.333v85.333h-85.333zM298.667 746.667v-85.333h85.333v85.333h-85.333zM298.667 576v-85.333h85.333v85.333h-85.333zM128 576v-85.333h85.333v85.333h-85.333zM213.333 405.333h-85.333v-85.333h85.333v85.333zM554.667 746.667h-85.333v-85.333h85.333v85.333zM384 405.333h-85.333v-85.333h85.333v85.333zM213.333 234.667h-85.333v-85.333h85.333v85.333zM853.333 746.667l-256-256-85.333 85.333-42.667-42.667 128-128 298.667 298.667-42.667 42.667zM384 234.667h-85.333v-85.333h85.333v85.333zM896 448l-42.667 42.667-256-256-85.333 85.333-42.667-42.667 128-128 298.667 298.667z" />
<glyph unicode="&#xe91e;" glyph-name="edit_source" d="M42.667 64v640l128 128h810.667v-768h-938.667zM128 576v-85.333h85.333v85.333h-85.333zM128 405.333v-85.333h85.333v85.333h-85.333zM213.333 746.667h-85.333v-85.333h85.333v85.333zM128 234.667v-85.333h85.333v85.333h-85.333zM896 746.667h-85.333v-85.333h85.333v85.333zM896 576h-85.333v-85.333h85.333v85.333zM896 405.333h-85.333v-85.333h85.333v85.333zM896 234.667h-85.333v-85.333h85.333v85.333zM640 661.333l-256-256 85.333-85.333 256 256-85.333 85.333zM298.667 234.667l128 42.667-85.333 85.333-42.667-128z" />
<glyph unicode="&#xe91f;" glyph-name="store_source" d="M42.667 704v-640h938.667v768h-810.667l-128-128zM128 490.667v85.333h85.333v-85.333h-85.333zM128 320v85.333h85.333v-85.333h-85.333zM128 149.333v85.333h85.333v-85.333h-85.333zM810.667 746.667h85.333v-85.333h-85.333v85.333zM128 746.667h85.333v-85.333h-85.333v85.333zM810.667 576h85.333v-85.333h-85.333v85.333zM810.667 405.333h85.333v-85.333h-85.333v85.333zM810.667 234.667h85.333v-85.333h-85.333v85.333zM512 746.667l147.793-256h-105.126v-341.333h-85.333v341.333h-105.125l147.792 256z" />
<glyph unicode="&#xe920;" glyph-name="remove_plate" d="M42.667 704v-640h938.667v768h-810.667l-128-128zM298.667 746.667h85.333v-85.333h-85.333v85.333zM298.667 234.667h85.333v-85.333h-85.333v85.333zM128 746.667h85.333v-85.333h-85.333v85.333zM640 746.667h85.333v-85.333h-85.333v85.333zM640 234.667h85.333v-85.333h-85.333v85.333zM128 490.667v85.333h85.333v-85.333h-85.333zM128 320v85.333h85.333v-85.333h-85.333zM128 149.333v85.333h85.333v-85.333h-85.333zM810.667 746.667h85.333v-85.333h-85.333v85.333zM810.667 576h85.333v-85.333h-85.333v85.333zM810.667 405.333h85.333v-85.333h-85.333v85.333zM810.667 234.667h85.333v-85.333h-85.333v85.333zM391.313 629.020l120.687-120.68 120.666 120.68 60.335-60.34-120.666-120.68 120.666-120.678-60.335-60.339-120.666 120.678-120.687-120.678-60.334 60.339 120.667 120.678-120.667 120.68 60.334 60.34z" />
<glyph unicode="&#xe921;" glyph-name="calendar" d="M981.333 448c0 259.206-210.129 469.333-469.333 469.333-259.206 0-469.333-210.128-469.333-469.333 0-259.204 210.128-469.333 469.333-469.333s469.333 210.129 469.333 469.333zM312.521 704h37.36v-42.669h346.222v42.669h37.359v-42.669h34.539v-426.664h-512v426.664h56.521v42.669zM290.688 631.949v-51.713h221.363v51.713h-221.363zM733.338 554.18v-288.009h-442.65v288.009h442.65zM426.928 529.987v-46.062h74.721v46.062h-74.721zM597.38 529.987h-74.718v-46.062h74.718v46.062zM618.18 529.987v-46.062h74.718v46.062h-74.718zM406.056 465.51h-74.719v-46.063h74.719v46.063zM426.928 465.51v-46.063h74.721v46.063h-74.721zM597.38 465.51h-74.718v-46.063h74.718v46.063zM618.18 465.51v-46.063h74.718v46.063h-74.718zM406.056 400.969h-74.719v-46.063h74.719v46.063zM426.928 400.969v-46.063h74.721v46.063h-74.721zM597.38 400.969h-74.718v-46.063h74.718v46.063zM618.18 400.969v-46.063h74.718v46.063h-74.718zM406.056 336.495h-74.719v-46.063h74.719v46.063zM426.928 336.495v-46.063h74.721v46.063h-74.721zM597.38 336.495h-74.718v-46.063h74.718v46.063z" />
<glyph unicode="&#xe922;" glyph-name="expand" d="M896 832h-768v-768h768v768zM554.667 618.667v-128h128v-85.333h-128v-128h-85.333v128h-128v85.333h128v128h85.333z" />
<glyph unicode="&#xe923;" glyph-name="collapse" d="M896 832h-768v-768h768v768zM341.333 405.333v85.333h341.333v-85.333h-341.333z" />
<glyph unicode="&#xe924;" glyph-name="temperature" d="M42.667 839.111c0 43.203 35.022 78.222 78.222 78.222h782.224c43.2 0 78.221-35.020 78.221-78.222v-782.224c0-43.2-35.021-78.221-78.221-78.221h-782.224c-43.2 0-78.222 35.021-78.222 78.221v782.224zM512 832c-70.692 0-128-57.308-128-128v-255.983c-51.817-38.921-85.333-100.89-85.333-170.684 0-117.82 95.512-213.333 213.333-213.333s213.333 95.514 213.333 213.333c0 69.794-33.519 131.763-85.333 170.684v255.983c0 70.692-57.306 128-128 128zM597.333 472.917v232.375c0 47.128-38.204 85.333-85.333 85.333-47.128 0-85.333-38.205-85.333-85.333v-280.124c-51.012-29.508-85.333-84.663-85.333-147.836 0-94.255 76.41-170.667 170.667-170.667 94.255 0 170.667 76.412 170.667 170.667 0 63.172-34.321 118.327-85.333 147.836v47.748zM469.333 533.333c0 23.564 19.102 42.667 42.667 42.667s42.667-19.103 42.667-42.667v-135.283c49.715-17.57 85.333-64.986 85.333-120.717 0-70.694-57.306-128-128-128-70.692 0-128 57.306-128 128 0 55.731 35.619 103.147 85.333 120.717v135.283zM746.667 746.667c-11.78 0-21.333-9.551-21.333-21.333s9.553-21.333 21.333-21.333h128c11.78 0 21.333 9.551 21.333 21.333s-9.553 21.333-21.333 21.333h-128zM725.333 597.333c0-11.782 9.553-21.333 21.333-21.333h85.333c11.78 0 21.333 9.551 21.333 21.333s-9.553 21.333-21.333 21.333h-85.333c-11.78 0-21.333-9.551-21.333-21.333zM746.667 490.667c-11.78 0-21.333-9.553-21.333-21.333s9.553-21.333 21.333-21.333h128c11.78 0 21.333 9.553 21.333 21.333s-9.553 21.333-21.333 21.333h-128z" />
<glyph unicode="&#xe925;" glyph-name="co2" d="M120.889 917.333h782.224c43.2 0 78.221-35.020 78.221-78.222v-782.224c0-43.2-35.021-78.221-78.221-78.221h-782.224c-43.2 0-78.222 35.021-78.222 78.221v782.224c0 43.203 35.022 78.222 78.222 78.222zM298.667 554.667c0-7.191 0.323-14.307 0.957-21.333h-22.29c-82.475 0-149.333-66.859-149.333-149.333 0-59.571 34.881-110.997 85.333-134.963v49.621c-25.908 19.46-42.667 50.445-42.667 85.342 0 58.91 47.756 106.667 106.667 106.667h64v42.667h1.172c-0.774 7.005-1.172 14.123-1.172 21.333 0 106.039 85.961 192 192 192s192-85.961 192-192c0-7.211-0.397-14.329-1.173-21.333h1.173v-42.667h21.333c58.91 0 106.667-47.757 106.667-106.667 0-34.897-16.759-65.882-42.667-85.342v-49.621c50.453 23.966 85.333 75.392 85.333 134.963 0 82.475-66.859 149.333-149.333 149.333h20.378c0.631 7.026 0.956 14.142 0.956 21.333 0 129.603-105.062 234.667-234.667 234.667-129.603 0-234.667-105.064-234.667-234.667zM343.624 405.333c-58.91 0-106.667-47.757-106.667-106.667s47.756-106.667 106.667-106.667h2.155c38.002 0 71.363 19.874 90.257 49.792l-38.799 19.401c-11.627-16.068-30.537-26.526-51.888-26.526h-1.293c-35.346 0-64 28.655-64 64s28.654 64 64 64h1.293c21.352 0 40.262-10.458 51.888-26.526l38.799 19.401c-18.893 29.918-52.254 49.792-90.257 49.792h-2.155zM558.272 405.333c-58.91 0-106.665-47.757-106.665-106.667s47.756-106.667 106.665-106.667h2.155c58.914 0 106.667 47.757 106.667 106.667s-47.753 106.667-106.667 106.667h-2.155zM558.703 362.667c-35.345 0-64-28.655-64-64s28.655-64 64-64h1.293c35.349 0 64 28.655 64 64s-28.651 64-64 64h-1.293zM685.79 123.477h105.835v27.085h-59.686l19.584 22.605c10.415 10.415 17.95 18.714 22.605 24.896 4.719 6.251 8.192 12.186 10.415 17.813 2.223 5.692 3.332 11.529 3.332 17.498 0 14.17-4.442 25.037-13.333 32.606-8.819 7.569-21.423 11.354-37.811 11.354-10.21 0-19.443-2.223-27.708-6.665-8.265-4.446-14.724-10.628-19.375-18.543-4.655-7.846-6.98-16.422-6.98-25.728h35.209c0 6.805 1.668 12.463 5.001 16.977 3.332 4.582 7.671 6.874 13.022 6.874 5.414 0 9.549-1.698 12.395-5.103 2.846-3.401 4.271-8.367 4.271-14.895 0-8.055-6.007-18.923-18.022-32.606l-48.751-51.247v-22.921z" />
<glyph unicode="&#xe926;" glyph-name="humidity" d="M128 917.333h768c47.13 0 85.333-38.205 85.333-85.333v-768c0-47.13-38.204-85.333-85.333-85.333h-768c-47.128 0-85.333 38.204-85.333 85.333v768c0 47.128 38.205 85.333 85.333 85.333zM518.946 727.188l-2.889 31.164c-0.469 5.107-7.646 5.107-8.115 0l-2.889-31.164c-151.029-3.687-272.326-127.273-272.326-279.188 0-72.102 27.323-137.822 72.18-187.371l49.451 49.451c-32.261 36.847-51.813 85.099-51.813 137.92 0 111.161 86.595 202.097 196.006 209.030l-13.393-144.558c-25.236-10.519-42.976-35.425-42.976-64.472 0-38.558 31.26-69.82 69.818-69.82s69.82 31.262 69.82 69.82c0 29.047-17.741 53.954-42.978 64.472l-13.393 144.558c47.543-3.013 90.778-21.886 124.471-51.389l49.451 49.451c-47.953 43.412-111.053 70.402-180.425 72.096zM719.125 413.090l-91.767-185.609c-6.989-14.14-10.633-29.734-10.633-45.542v-3.285c0-44.8 30.153-83.853 73.131-94.72 19.217-4.86 39.322-4.86 58.543 0 42.978 10.867 73.126 49.92 73.126 94.72v3.285c0 15.808-3.639 31.403-10.628 45.542l-91.772 185.609zM781.995 233.89l2.359-3.998c7.612-12.89 11.571-27.102 11.571-41.51v-2.995c0-34.15-22.955-64.636-57.83-79.497l-18.97 16.064c29.837 15.97 48.939 41.199 48.939 75.234v2.991c0 6.673-0.849 13.303-2.517 19.78l16.448 13.931zM512 64c38.519 0 75.712 5.67 110.793 16.226l-22.618 37.939c-28.126-7.501-57.685-11.499-88.175-11.499-188.513 0-341.333 152.819-341.333 341.333s152.82 341.333 341.333 341.333c188.514 0 341.333-152.82 341.333-341.333 0-56.802-13.875-110.362-38.417-157.474l25.156-42.197c35.482 58.18 55.927 126.541 55.927 199.671 0 212.077-171.921 384-384 384-212.077 0-384-171.923-384-384 0-212.079 171.923-384 384-384z" />
<glyph unicode="&#xe927;" glyph-name="door" d="M42.667 832c0 47.128 38.205 85.333 85.333 85.333h768c47.13 0 85.333-38.205 85.333-85.333v-768c0-47.13-38.204-85.333-85.333-85.333h-768c-47.128 0-85.333 38.204-85.333 85.333v768zM469.333 746.667h-298.667v-597.333h298.667v42.667h-256v512h256v42.667zM528.597 831.479c-8.239 2.558-16.597-3.599-16.597-12.224v-742.51c0-8.623 8.358-14.78 16.597-12.224l315.733 98.044c5.355 1.66 9.003 6.618 9.003 12.224v546.425c0 5.607-3.648 10.561-9.003 12.224l-315.733 98.041zM640 448c0-39.023-19.102-70.66-42.667-70.66s-42.667 31.637-42.667 70.66c0 39.023 19.102 70.661 42.667 70.661s42.667-31.638 42.667-70.661z" />
<glyph unicode="&#xe928;" glyph-name="discard" d="M42.667 832v-768c0-47.125 38.206-85.333 85.333-85.333h768c47.13 0 85.333 38.208 85.333 85.333v768c0 47.125-38.204 85.333-85.333 85.333h-768c-47.128 0-85.333-38.208-85.333-85.333zM256 661.333l60.338 60.344 211.192-211.188 211.187 211.188 60.339-60.344-211.187-211.187 211.187-211.187-60.339-60.343-211.187 211.187-211.192-211.187-60.338 60.343 211.188 211.187-211.188 211.187z" />
<glyph unicode="&#xe929;" glyph-name="download_log" d="M554.667 661.333v128h-85.333v-128h85.333zM42.667 832v-768c0-42.667 42.667-85.333 85.333-85.333h768c42.667 0 85.333 42.667 85.333 85.333v768c0 47.129-38.204 85.333-85.333 85.333h-768c-42.667 0-85.333-42.667-85.333-85.333zM213.333 832h42.667v-170.667h128v-42.667h-170.667v213.333zM426.667 832h170.667v-213.333h-170.667v213.333zM682.667 789.333v-128h85.333v42.667h-42.667v42.667h85.333v-128h-170.667v213.333h170.667v-42.667h-128zM512 234.667l-170.667 170.667h85.333v170.667h170.667v-170.667h85.333l-170.667-170.667zM170.667 277.333h85.333v-128h512v128h85.333v-213.333h-682.667v213.333z" />
<glyph unicode="&#xe92a;" glyph-name="duplicate" d="M42.667 917.333h768v-85.333h-682.667v-725.333h-85.333v810.667zM213.333 746.667v-768h768v768h-768zM298.667 661.333h597.333v-597.333h-597.333v597.333z" />
<glyph unicode="&#xe92b;" glyph-name="edit" d="M128 917.333c-42.667 0-85.333-42.667-85.333-85.333v-768c0-42.667 42.667-85.333 85.333-85.333h768c42.667 0 85.333 42.667 85.333 85.333v768c0 42.667-42.667 85.333-85.333 85.333h-768zM336 389.333l352 352 117.333-117.333-352-352-117.333 117.333zM277.333 330.667l117.333-117.333-176-58.667 58.667 176z" />
<glyph unicode="&#xe92c;" glyph-name="edit_project" d="M981.333 21.333h-938.667v853.333h341.333l170.667-170.667h426.667v-682.667zM629.333 564.364l-234.667-232.729 78.221-77.572 234.667 232.725-78.221 77.576zM316.445 176.486l117.333 38.788-78.223 77.572-39.111-116.361z" />
<glyph unicode="&#xe92d;" glyph-name="efi_setting" d="M550.549 720.371c14.191-7.096 14.191-18.602 0-25.699-14.195-7.097-37.205-7.096-51.401 0-14.191 7.096-14.191 18.603 0 25.699 14.195 7.097 37.205 7.097 51.401 0zM469.333 618.667l-21.333-128 320 149.333h-192v-21.333h-106.667zM128 917.333c-43.201 0-85.333-35.021-85.333-78.222v-775.111c0-43.2 42.132-85.333 85.333-85.333h768c43.2 0 85.333 42.133 85.333 85.333v768c0 43.201-42.133 85.333-85.333 85.333h-768zM128 618.667l384 170.667 384-170.667-384-192-384 192zM298.667 490.667l-85.333-42.667 298.667-128 298.667 128-85.333 42.667 42.667 21.333 128-64-384-170.667-384 170.667 128 64 42.667-21.333zM213.333 277.333l298.667-128 298.667 128-85.333 42.667 42.667 21.333 128-64-384-170.667-384 170.667 128 64 42.667-21.333-85.333-42.667z" />
<glyph unicode="&#xe92e;" glyph-name="eject" d="M128 917.333c-43.203 0-85.333-42.132-85.333-85.333v-768c0-43.2 42.131-85.333 85.333-85.333h768c43.204 0 85.333 42.133 85.333 85.333v768c0 43.201-42.129 85.333-85.333 85.333h-768zM224 405.333l293.333 293.333 293.333-293.333h-586.667zM800 320v-88h-586.667v88h586.667z" />
<glyph unicode="&#xe92f;" glyph-name="error" d="M512-21.333c259.209 0 469.333 210.125 469.333 469.333 0 259.206-210.125 469.333-469.333 469.333-259.206 0-469.333-210.127-469.333-469.333 0-259.209 210.127-469.333 469.333-469.333zM554.667 341.333h-85.333l-21.333 362.667h128l-21.333-362.667zM469.333 192v85.333h85.333v-85.333h-85.333z" />
<glyph unicode="&#xe930;" glyph-name="exit_manual_mode" d="M128 917.333h768c43.2 0 85.333-42.135 85.333-85.333v-768c0-43.2-42.133-85.333-85.333-85.333h-768c-43.198 0-85.333 42.133-85.333 85.333v768c0 43.198 42.135 85.333 85.333 85.333zM512 56.887c216.009 0 391.113 175.104 391.113 391.113s-175.104 391.111-391.113 391.111c-216.009 0-391.111-175.103-391.111-391.111s175.103-391.113 391.111-391.113zM469.333 746.667c0 23.564 19.102 42.667 42.667 42.667s42.667-19.102 42.667-42.667v-170.667c0-23.564-19.102-42.667-42.667-42.667s-42.667 19.102-42.667 42.667v170.667zM426.667 689.433c-99.43-35.143-170.667-129.969-170.667-241.433 0-141.385 114.615-256 256-256s256 114.615 256 256c0 111.464-71.236 206.29-170.667 241.433v-93.598c51.012-29.509 85.333-84.664 85.333-147.834 0-94.255-76.412-170.667-170.667-170.667-94.257 0-170.667 76.412-170.667 170.667 0 63.171 34.321 118.325 85.333 147.834v93.598z" />
<glyph unicode="&#xe931;" glyph-name="export_excel" d="M42.667 832v-768c0-43.2 42.135-85.333 85.333-85.333h768c43.2 0 85.333 42.133 85.333 85.333v768c0 43.201-42.133 85.333-85.333 85.333h-768c-43.198 0-85.333-42.133-85.333-85.333zM128 789.333c0 21.6 21.068 42.667 42.667 42.667h682.667c21.598 0 42.667-21.066 42.667-42.667v-682.667c0-21.602-21.069-42.667-42.667-42.667h-682.667c-21.599 0-42.667 21.065-42.667 42.667v682.667zM384 746.667v-85.333h-170.667v85.333h170.667zM810.667 746.667v-85.333h-170.667v85.333h170.667zM426.667 746.667v-85.333h170.667v85.333h-170.667zM384 618.667v-85.333h-170.667v85.333h170.667zM640 618.667v-85.333h170.667v85.333h-170.667zM597.333 618.667v-85.333h-170.667v85.333h170.667zM213.333 490.667v-85.333h170.667v85.333h-170.667zM810.667 490.667v-85.333h-170.667v85.333h170.667zM426.667 490.667v-85.333h170.667v85.333h-170.667zM384 362.667v-85.333h-170.667v85.333h170.667zM640 362.667v-85.333h170.667v85.333h-170.667zM597.333 362.667v-85.333h-170.667v85.333h170.667zM213.333 234.667v-85.333h170.667v85.333h-170.667zM810.667 234.667v-85.333h-170.667v85.333h170.667zM426.667 234.667v-85.333h170.667v85.333h-170.667z" />
<glyph unicode="&#xe932;" glyph-name="fit" d="M42.667 832c0 47.128 38.205 85.333 85.333 85.333h768c47.13 0 85.333-38.205 85.333-85.333v-768c0-47.13-38.204-85.333-85.333-85.333h-768c-47.128 0-85.333 38.204-85.333 85.333v768zM128 832v-213.333h42.667v140.497l185.541-185.541 30.17 30.17-185.541 185.541h140.497v42.667h-213.333zM677.726 789.333h140.493l-185.54-185.541 30.17-30.17 185.545 185.541v-140.497h42.667v213.333h-213.333v-42.667zM170.667 141.777v140.497h-42.667v-213.333h213.333v42.667h-140.497l185.541 185.545-30.17 30.17-185.541-185.545zM848.393 282.274v-140.493l-185.545 185.54-30.17-30.17 185.54-185.545h-140.493v-42.667h213.333v213.333h-42.667z" />
<glyph unicode="&#xe933;" glyph-name="hdr_setting" d="M42.667 832c0 47.128 38.204 85.333 85.333 85.333h768c47.13 0 85.333-38.205 85.333-85.333v-768c0-47.13-38.204-85.333-85.333-85.333h-768c-47.129 0-85.333 38.204-85.333 85.333v768zM512 394.999c-51.456 34.441-85.333 93.099-85.333 159.667s33.878 125.225 85.333 159.668c-30.511 20.422-67.197 32.332-106.667 32.332-106.039 0-192-85.961-192-192s85.961-192 192-192c39.47 0 76.156 11.908 106.667 32.333zM546.116 424.111c-10.185-10.974-21.632-20.757-34.116-29.111 30.511-20.425 67.196-32.333 106.667-32.333 106.039 0 192 85.961 192 192s-85.961 192-192 192c-39.471 0-76.156-11.91-106.667-32.332 12.484-8.357 23.932-18.139 34.116-29.113-45.798-25.506-76.783-74.412-76.783-130.555s30.985-105.050 76.783-130.556zM546.116 424.111c21.478-11.964 46.217-18.778 72.55-18.778 82.475 0 149.333 66.859 149.333 149.333s-66.859 149.333-149.333 149.333c-26.334 0-51.072-6.815-72.55-18.778 31.787-34.258 51.217-80.137 51.217-130.555s-19.43-96.299-51.217-130.556zM789.333 234.667h-213.325c-19.46 25.907-50.445 42.667-85.342 42.667s-65.88-16.759-85.341-42.667h-170.659c-35.346 0-64-28.655-64-64s28.654-64 64-64h170.659c19.461-25.907 50.444-42.667 85.341-42.667s65.882 16.759 85.342 42.667h213.325c35.345 0 64 28.655 64 64s-28.655 64-64 64zM384 874.667v-85.333h42.667v85.333h-42.667zM170.667 576h-85.333v-42.667h85.333v42.667zM231.007 698.824l30.169 30.17-60.34 60.34-30.169-30.17 60.34-60.34zM597.333 170.667c0-7.305-0.734-14.438-2.133-21.333h194.133c11.785 0 21.333 9.553 21.333 21.333s-9.549 21.333-21.333 21.333h-194.133c1.399-6.895 2.133-14.029 2.133-21.333z" />
<glyph unicode="&#xe934;" glyph-name="imaging_profile" d="M128 917.333h768c43.2 0 85.333-42.133 85.333-85.333v-768c0-43.2-42.133-85.333-85.333-85.333h-768c-43.202 0-85.333 42.133-85.333 85.333v768c0 43.201 42.131 85.333 85.333 85.333zM213.333 704c-23.564 0-42.667-19.102-42.667-42.667v-426.667c0-23.565 19.102-42.667 42.667-42.667h597.333c23.565 0 42.667 19.102 42.667 42.667v426.667c0 23.564-19.102 42.667-42.667 42.667h-597.333zM512 234.667c-117.821 0-213.333 95.514-213.333 213.333 0 117.821 95.512 213.333 213.333 213.333s213.333-95.512 213.333-213.333c0-117.82-95.514-213.333-213.333-213.333zM512 277.333c94.255 0 170.667 76.412 170.667 170.667 0 94.257-76.412 170.667-170.667 170.667-94.257 0-170.667-76.41-170.667-170.667 0-94.255 76.41-170.667 170.667-170.667zM746.667 661.333c-11.78 0-21.333-9.551-21.333-21.333v-42.667c0-11.782 9.553-21.333 21.333-21.333h42.667c11.78 0 21.333 9.551 21.333 21.333v42.667c0 11.782-9.553 21.333-21.333 21.333h-42.667z" />
<glyph unicode="&#xe935;" glyph-name="info" d="M42.667 832v-768c0-42.667 42.667-85.333 85.333-85.333h768c42.667 0 85.333 42.667 85.333 85.333v768c0 42.667-42.667 85.333-85.333 85.333h-768c-42.667 0-85.333-42.667-85.333-85.333zM853.333 448c0-194.406-146.927-341.333-341.333-341.333-194.404 0-341.333 146.927-341.333 341.333 0 194.404 146.929 341.333 341.333 341.333 194.406 0 341.333-146.929 341.333-341.333zM554.667 618.667c0-23.564-19.102-42.667-42.667-42.667s-42.667 19.102-42.667 42.667c0 23.564 19.102 42.667 42.667 42.667s42.667-19.102 42.667-42.667zM426.667 533.333v-42.667h42.667v-213.333h-42.667v-42.667h170.667v42.667h-42.667v256h-128z" />
<glyph unicode="&#xe936;" glyph-name="live_image" d="M128 917.333c-43.201 0-85.333-42.133-85.333-85.333v-768c0-43.2 42.132-85.333 85.333-85.333h768c43.2 0 85.333 42.133 85.333 85.333v768c0 43.201-42.133 85.333-85.333 85.333h-768zM213.333 576c0 23.564 19.103 42.667 42.667 42.667h384c23.565 0 42.667-19.102 42.667-42.667v-86.063l109.713 83.876c8.128 6.213 18.287-1.553 18.287-13.979v-223.668c0-12.425-10.159-20.194-18.287-13.978l-109.713 83.874v-86.063c0-23.565-19.102-42.667-42.667-42.667h-384c-23.564 0-42.667 19.102-42.667 42.667v256z" />
<glyph unicode="&#xe937;" glyph-name="manual_mode" d="M426.667 277.333l256 170.667-256 170.667v-341.333zM128 917.333h768c43.2 0 85.333-42.135 85.333-85.333v-768c0-43.2-42.133-85.333-85.333-85.333h-768c-43.198 0-85.333 42.133-85.333 85.333v768c0 43.198 42.135 85.333 85.333 85.333zM512 56.887c216.004 0 391.113 175.104 391.113 391.113s-175.108 391.111-391.113 391.111c-216.004 0-391.111-175.103-391.111-391.111s175.107-391.113 391.111-391.113z" />
<glyph unicode="&#xe938;" glyph-name="more" d="M128 917.333c-47.128 0-85.333-38.208-85.333-85.334v-768c0-47.125 38.206-85.333 85.333-85.333h768c47.13 0 85.333 38.208 85.333 85.333v768c0 47.125-38.204 85.334-85.333 85.334h-768zM341.333 448c0-47.125-38.206-85.333-85.333-85.333s-85.333 38.208-85.333 85.333c0 47.125 38.206 85.333 85.333 85.333s85.333-38.208 85.333-85.333zM597.333 448c0-47.125-38.204-85.333-85.333-85.333-47.127 0-85.333 38.208-85.333 85.333s38.206 85.333 85.333 85.333c47.13 0 85.333-38.208 85.333-85.333zM853.333 448c0-47.125-38.204-85.333-85.333-85.333s-85.333 38.208-85.333 85.333c0 47.125 38.204 85.333 85.333 85.333s85.333-38.208 85.333-85.333z" />
<glyph unicode="&#xe939;" glyph-name="new" d="M128 917.333c-47.128 0-85.333-38.208-85.333-85.333v-768c0-47.125 38.205-85.333 85.333-85.333h768c47.13 0 85.333 38.208 85.333 85.333v768c0 47.125-38.204 85.333-85.333 85.333h-768zM256 106.667v682.667h341.333v-170.667h170.667v-512h-512zM640 661.333v128l128-128h-128z" />
<glyph unicode="&#xe93a;" glyph-name="new_source_plate" d="M981.333 64v725.333h-810.667l-128-128v-597.333h938.667zM128 704h128v-128h-128v128zM341.333 704h128v-128h-128v128zM682.667 704v-128h-128v128h128zM768 704h128v-128h-128v128zM256 490.667v-128h-128v128h128zM341.333 490.667h128v-128h-128v128zM682.667 490.667v-128h-128v128h128zM768 490.667h128v-128h-128v128zM256 277.333v-128h-128v128h128zM341.333 277.333h128v-128h-128v128zM682.667 277.333v-128h-128v128h128zM768 277.333h128v-128h-128v128z" />
<glyph unicode="&#xe93b;" glyph-name="new_container" d="M640 832h-341.333v-85.333h42.667v-170.667l-226.958-306.483c-18.766-22.519-29.042-50.901-29.042-80.213 0-69.205 56.099-125.303 125.302-125.303h517.394c69.205 0 125.303 56.098 125.303 125.303 0 29.312-10.274 57.694-29.043 80.213l-226.957 306.483v170.667h42.667v85.333zM426.667 746.667h85.333v-202.667l142.221-181.333h-369.775l142.221 181.333v202.667zM810.667 832h42.667v-85.333h85.333v-42.667h-85.333v-85.333h-42.667v85.333h-85.333v42.667h85.333v85.333z" />
<glyph unicode="&#xe93c;" glyph-name="container_setting" d="M298.667 832h341.333v-85.333h-42.667v-170.667l226.957-306.483c18.769-22.519 29.043-50.901 29.043-80.213 0-69.205-56.098-125.303-125.303-125.303h-517.394c-69.203 0-125.302 56.098-125.302 125.303 0 29.312 10.276 57.694 29.042 80.213l226.958 306.483v170.667h-42.667v85.333zM512 746.667h-85.333v-202.667l-142.221-181.333h369.775l-142.221 181.333v202.667zM938.667 832v-85.333l-42.667 42.667h-42.667v-128l42.667-42.667h-128l42.667 42.667v128h-42.667l-42.667-42.667v85.333h213.333z" />
<glyph unicode="&#xe93d;" glyph-name="import_container" d="M341.333 832h341.333v-85.333h-42.667v-170.667l226.957-306.483c18.769-22.519 29.043-50.901 29.043-80.213 0-69.205-56.098-125.303-125.303-125.303h-517.394c-69.203 0-125.302 56.098-125.302 125.303 0 29.312 10.276 57.694 29.041 80.213l226.959 306.483v170.667h-42.667v85.333zM554.667 746.667h-85.333v-202.667l-142.221-181.333h369.775l-142.221 181.333v202.667zM213.333 661.333v-64l128 85.333-128 85.333v-64h-170.667v-42.667h170.667z" />
<glyph unicode="&#xe93e;" glyph-name="expoert_container" d="M298.667 832h341.333v-85.333h-42.667v-170.667l226.957-306.483c18.769-22.519 29.043-50.901 29.043-80.213 0-69.205-56.098-125.303-125.303-125.303h-517.394c-69.203 0-125.302 56.098-125.302 125.303 0 29.312 10.276 57.694 29.042 80.213l226.958 306.483v170.667h-42.667v85.333zM512 746.667h-85.333v-202.667l-142.221-181.333h369.775l-142.221 181.333v202.667zM810.667 661.333v-64l128 85.333-128 85.333v-64h-170.667v-42.667h170.667z" />
<glyph unicode="&#xe93f;" glyph-name="edit_container" d="M341.333 832h341.333v-85.333h-42.667v-89.6l-85.333-110.933v200.533h-85.333v-202.667l-142.221-181.333h470.865l68.979-93.15c18.769-22.519 29.043-50.901 29.043-80.213 0-69.205-56.098-125.303-125.303-125.303h-517.394c-69.203 0-125.302 56.098-125.302 125.303 0 29.312 10.276 57.694 29.042 80.213l226.958 306.483v170.667h-42.667v85.333zM826.197 746.667l60.339-60.34-181.022-181.019-60.339 60.34 181.022 181.020zM584.836 444.968l30.17 90.509 60.339-60.34-90.509-30.169z" />
<glyph unicode="&#xe940;" glyph-name="delete_container" d="M640 832h-341.333v-85.333h42.667v-170.667l-226.958-306.483c-18.766-22.519-29.042-50.901-29.042-80.213 0-69.205 56.099-125.303 125.302-125.303h517.394c69.205 0 125.303 56.098 125.303 125.303 0 29.312-10.274 57.694-29.043 80.213l-226.957 306.483v170.667h42.667v85.333zM426.667 746.667h85.333v-202.667l142.221-181.333h-369.775l142.221 181.333v202.667zM922.509 664.993l-30.17-30.17-60.339 60.34-60.339-60.34-30.17 30.17 60.339 60.339-60.339 60.341 30.17 30.17 60.339-60.34 60.339 60.34 30.17-30.17-60.339-60.34 60.339-60.34z" />
<glyph unicode="&#xe941;" glyph-name="print_barcode" d="M682.667 490.667h42.667v-42.667h-42.667v42.667zM42.667 704l128 128h810.667v-768h-938.667v640zM383.958 703.996v-85.332h255.999v85.332h-255.999zM298.667 576l-85.333-85.331v-213.336h128v85.333h341.333v-85.333h128v213.336l-85.333 85.331h-426.667zM341.333 192h341.333l-85.333 128h-170.667l-85.333-128z" />
<glyph unicode="&#xe942;" glyph-name="remove" d="M384 832h-341.333v-85.333h938.667v85.333h-341.333v85.333h-256v-85.333zM426.667 874.667h170.667v-42.667h-170.667v42.667zM896 704h-768l85.333-725.333h597.333l85.333 725.333z" />
<glyph unicode="&#xe943;" glyph-name="rename" d="M341.333 149.333l-170.667 170.667 640 640 170.667-170.667-640-640zM42.667 21.333l85.333 256 170.667-170.667-256-85.333zM298.667 21.333l-256-85.333h938.667v85.333h-682.667z" />
<glyph unicode="&#xe944;" glyph-name="result" d="M120.889 917.333h782.224c43.196 0 78.221-35.021 78.221-78.222v-782.224c0-43.2-35.025-78.221-78.221-78.221h-782.224c-43.198 0-78.222 35.021-78.222 78.221v782.224c0 43.201 35.024 78.222 78.222 78.222zM864 682.667c0 43.202-35.025 78.222-78.221 78.222-43.2 0-78.225-35.020-78.225-78.222s35.025-78.222 78.225-78.222c43.196 0 78.221 35.020 78.221 78.222zM426.667 533.333l-341.333-341.333h853.333l-256 256-85.333-85.333-170.667 170.667z" />
<glyph unicode="&#xe945;" glyph-name="run" d="M128 917.333h768c47.13 0 85.333-38.205 85.333-85.333v-768c0-47.13-38.204-85.333-85.333-85.333h-768c-47.128 0-85.333 38.204-85.333 85.333v768c0 47.128 38.205 85.333 85.333 85.333zM341.333 192l384 256-384 256v-512z" />
<glyph unicode="&#xe946;" glyph-name="servicing" d="M896 917.333c42.667 0 85.333-42.667 85.333-85.333v-768c0-42.667-42.667-85.333-85.333-85.333h-768c-42.667 0-85.333 42.667-85.333 85.333v768c0 42.667 42.667 85.333 85.333 85.333h768zM843.69 233.284l-290.769 290.047v138.334l-94.775 113.447c-13.171 15.77-32.687 24.887-53.265 24.887h-143.62c-10.812 0-15.701-13.481-7.403-20.384l105.843-87.982c5.269-4.38 8.316-10.869 8.316-17.712v-62.324c0-12.23-4.868-23.958-13.538-32.605l-30.707-30.628c-8.666-8.647-20.425-13.505-32.687-13.505h-15.518l-96.789 77.239c-7.569 6.039-18.778 0.665-18.778-9.001v-60.489c0-19.608 8.341-38.295 22.955-51.412l72.832-65.387c12.736-11.43 29.257-17.758 46.387-17.758h135.185l292.516-291.793c29.007-28.932 76.719-26.56 102.697 5.111l15.754 19.209c22.558 27.499 20.555 67.58-4.635 92.706z" />
<glyph unicode="&#xe947;" glyph-name="snooze" d="M85.333 661.333l-85.333 85.333 170.667 170.667 85.333-85.333-170.667-170.667zM384 576v-85.333h170.667l-170.667-170.667v-85.333h298.667v85.333h-170.667l170.667 170.667v85.333h-298.667zM938.667 405.333c0 235.646-191.023 426.667-426.667 426.667-235.646 0-426.667-191.021-426.667-426.667 0-235.644 191.021-426.667 426.667-426.667 235.644 0 426.667 191.023 426.667 426.667zM853.333 405.333c0-188.51-152.823-341.333-341.333-341.333s-341.333 152.823-341.333 341.333c0 188.51 152.823 341.333 341.333 341.333s341.333-152.823 341.333-341.333zM1024 746.667l-85.333-85.333-170.667 170.667 85.333 85.333 170.667-170.667z" />
<glyph unicode="&#xe948;" glyph-name="start_imaging" d="M453.333 536l146.667-88-146.667-88v176zM717.333 448c0 113.402-91.93 205.333-205.333 205.333-113.402 0-205.333-91.931-205.333-205.333 0-113.404 91.932-205.333 205.333-205.333 113.404 0 205.333 91.93 205.333 205.333zM688 448c0-97.203-78.797-176-176-176s-176 78.797-176 176c0 97.202 78.798 176 176 176s176-78.798 176-176zM717.333 638.667c0 8.1 6.566 14.667 14.665 14.667h29.338c8.098 0 14.665-6.566 14.665-14.667v-29.333c0-8.1-6.566-14.667-14.665-14.667h-29.338c-8.098 0-14.665 6.566-14.665 14.667v29.333zM42.667 832v-768c0-43.2 42.132-85.333 85.333-85.333h768c43.2 0 85.333 42.133 85.333 85.333v768c0 43.201-42.133 85.333-85.333 85.333h-768c-43.201 0-85.333-42.133-85.333-85.333zM170.667 661.333c0 21.333 21.333 42.667 42.667 42.667s597.333 0 597.333 0c21.333 0 42.667-21.333 42.667-42.667v-426.667c0-21.333-21.333-42.667-42.667-42.667h-597.333c-21.333 0-42.667 21.333-42.667 42.667s0 426.667 0 426.667z" />
<glyph unicode="&#xe949;" glyph-name="stop" d="M128 917.333h768c47.13 0 85.333-38.205 85.333-85.333v-768c0-47.13-38.204-85.333-85.333-85.333h-768c-47.128 0-85.333 38.204-85.333 85.333v768c0 47.128 38.205 85.333 85.333 85.333zM682.667 618.667h-341.333v-341.333h341.333v341.333z" />
<glyph unicode="&#xe94a;" glyph-name="success" d="M981.333 448c0 259.207-210.125 469.333-469.333 469.333-259.206 0-469.333-210.127-469.333-469.333 0-259.209 210.127-469.333 469.333-469.333 259.209 0 469.333 210.125 469.333 469.333zM728.367 648.835l60.339-60.34-331.868-331.868-200.838 200.836 60.34 60.341 140.498-140.499 271.529 271.529z" />
<glyph unicode="&#xe94b;" glyph-name="validate" d="M128 917.333h768c47.13 0 85.333-38.205 85.333-85.333v-768c0-47.13-38.204-85.333-85.333-85.333h-768c-47.128 0-85.333 38.204-85.333 85.333v768c0 47.128 38.205 85.333 85.333 85.333zM128 405.333l256-256 512 512-85.333 85.333-426.667-426.667-170.667 170.667-85.333-85.333z" />
<glyph unicode="&#xe94c;" glyph-name="warning" d="M476.924 812.113l-427.107-678.682c-18.675-29.679 1.407-69.431 35.078-69.431h854.211c33.673 0 53.751 39.753 35.076 69.431l-427.106 678.682c-16.687 26.516-53.466 26.516-70.153 0zM448.255 587.808h126.469l-21.077-312.608h-84.314l-21.078 312.608zM469.333 234.667h85.333v-85.333h-85.333v85.333z" />
<glyph unicode="&#xe94d;" glyph-name="zoomin" d="M128 917.333c-47.128 0-85.333-38.205-85.333-85.333v-768c0-47.13 38.205-85.333 85.333-85.333h768c47.13 0 85.333 38.204 85.333 85.333v768c0 47.128-38.204 85.333-85.333 85.333h-768zM597.333 597.333c0-129.604-105.062-234.667-234.667-234.667-129.603 0-234.667 105.062-234.667 234.667 0 129.603 105.064 234.667 234.667 234.667 129.604 0 234.667-105.064 234.667-234.667zM561.229 597.333c0 109.664-88.896 198.564-198.562 198.564-109.664 0-198.564-88.9-198.564-198.564 0-109.662 88.9-198.562 198.564-198.562 109.666 0 198.562 88.9 198.562 198.562zM341.333 618.667v85.333h42.667v-85.333h85.333v-42.667h-85.333v-85.333h-42.667v85.333h-85.333v42.667h85.333zM512 357.491l90.509 90.509 36.715-36.715-90.509-90.509-36.715 36.715zM664.346 382.502l238.327-238.327-90.509-90.509-238.327 238.327 90.509 90.509z" />
<glyph unicode="&#xe94e;" glyph-name="zoomout" d="M42.667 832c0 47.128 38.205 85.333 85.333 85.333h768c47.13 0 85.333-38.205 85.333-85.333v-768c0-47.13-38.204-85.333-85.333-85.333h-768c-47.128 0-85.333 38.204-85.333 85.333v768zM362.667 362.667c129.604 0 234.667 105.062 234.667 234.667 0 129.603-105.062 234.667-234.667 234.667-129.603 0-234.667-105.064-234.667-234.667s105.064-234.667 234.667-234.667zM362.667 398.771c109.666 0 198.562 88.9 198.562 198.562 0 109.664-88.896 198.564-198.562 198.564-109.664 0-198.564-88.9-198.564-198.564 0-109.662 88.9-198.562 198.564-198.562zM512 357.491l36.715-36.715 90.509 90.509-36.715 36.715-90.509-90.509zM664.346 382.502l-90.509-90.509 238.327-238.327 90.509 90.509-238.327 238.327zM469.333 576h-213.333v42.667h213.333v-42.667z" />
<glyph unicode="&#xe94f;" glyph-name="home" d="M128 917.333c-47.128 0-85.333-38.205-85.333-85.333v-768c0-47.13 38.205-85.333 85.333-85.333h768c47.13 0 85.333 38.204 85.333 85.333v768c0 47.128-38.204 85.333-85.333 85.333h-768zM512 746.667l298.667-303.159h-85.333v-294.174h-128v213.333h-170.668v-213.333h-128v294.174h-85.332l298.667 303.159z" />
<glyph unicode="&#xe950;" glyph-name="logo" d="M512 724.079c15.245 0 27.61 12.36 27.61 27.608s-12.365 27.608-27.61 27.608c-15.245 0-27.61-12.36-27.61-27.608s12.365-27.608 27.61-27.608zM567.215 448c0-30.494-24.717-55.215-55.215-55.215s-55.215 24.721-55.215 55.215c0 30.494 24.717 55.215 55.215 55.215s55.215-24.721 55.215-55.215zM512 116.706c15.245 0 27.61 12.361 27.61 27.61 0 15.245-12.365 27.605-27.61 27.605s-27.61-12.361-27.61-27.605c0-15.249 12.365-27.61 27.61-27.61zM843.294 448c0-15.249-12.361-27.61-27.61-27.61-15.245 0-27.605 12.361-27.605 27.61s12.361 27.61 27.605 27.61c15.249 0 27.61-12.361 27.61-27.61zM235.921 448c0-15.249-12.361-27.61-27.608-27.61s-27.608 12.361-27.608 27.61c0 15.249 12.362 27.61 27.608 27.61s27.608-12.361 27.608-27.61zM263.529 751.686c0-30.494-24.72-55.216-55.216-55.216s-55.215 24.721-55.215 55.216c0 30.494 24.719 55.215 55.215 55.215s55.216-24.721 55.216-55.215zM870.903 144.316c0-30.498-24.721-55.219-55.219-55.219-30.494 0-55.215 24.721-55.215 55.219 0 30.494 24.721 55.215 55.215 55.215 30.498 0 55.219-24.721 55.219-55.215zM263.529 144.316c0-30.498-24.72-55.219-55.216-55.219s-55.215 24.721-55.215 55.219c0 30.494 24.719 55.215 55.215 55.215s55.216-24.721 55.216-55.215zM870.903 751.686c0-30.494-24.721-55.216-55.219-55.216-30.494 0-55.215 24.721-55.215 55.216s24.721 55.215 55.215 55.215c30.498 0 55.219-24.721 55.219-55.215zM42.667 832c0 42.667 42.667 85.333 85.333 85.333h768c42.667 0 85.333-42.667 85.333-85.333v-768c0-42.667-42.667-85.333-85.333-85.333h-768c-42.667 0-85.333 42.667-85.333 85.333v768zM594.825 779.294c0 45.742-37.082 82.823-82.825 82.823s-82.825-37.081-82.825-82.823c0-45.743 37.082-82.824 82.825-82.824s82.825 37.081 82.825 82.824zM512 309.961c76.237 0 138.039 61.803 138.039 138.039s-61.803 138.039-138.039 138.039c-76.237 0-138.039-61.802-138.039-138.039s61.802-138.039 138.039-138.039zM594.825 116.706c0 45.743-37.082 82.825-82.825 82.825s-82.825-37.082-82.825-82.825c0-45.743 37.082-82.825 82.825-82.825s82.825 37.082 82.825 82.825zM843.294 365.175c45.743 0 82.825 37.082 82.825 82.825s-37.082 82.825-82.825 82.825c-45.743 0-82.825-37.082-82.825-82.825s37.082-82.825 82.825-82.825zM180.706 365.175c45.743 0 82.824 37.082 82.824 82.825s-37.081 82.825-82.824 82.825c-45.742 0-82.823-37.082-82.823-82.825s37.081-82.825 82.823-82.825zM235.921 586.039c76.239 0 138.039 61.803 138.039 138.039s-61.801 138.039-138.039 138.039c-76.238 0-138.039-61.802-138.039-138.039s61.801-138.039 138.039-138.039zM788.079 33.882c76.237 0 138.039 61.803 138.039 138.039s-61.803 138.039-138.039 138.039c-76.237 0-138.039-61.803-138.039-138.039s61.803-138.039 138.039-138.039zM235.921 33.882c76.239 0 138.039 61.803 138.039 138.039s-61.801 138.039-138.039 138.039c-76.238 0-138.039-61.803-138.039-138.039s61.801-138.039 138.039-138.039zM788.079 586.039c76.237 0 138.039 61.803 138.039 138.039s-61.803 138.039-138.039 138.039c-76.237 0-138.039-61.802-138.039-138.039s61.803-138.039 138.039-138.039z" />
<glyph unicode="&#xe951;" glyph-name="settings" d="M417.431 786.71l16.349 130.624h156.442l16.273-130.242c27.23-7.744 53.47-18.744 78.067-32.771l103.966 80.895 110.69-110.686-80.747-103.735c13.867-24.683 24.674-50.951 32.239-78.222l130.624-16.348v-156.442l-130.244-16.269c-7.753-27.255-18.752-53.466-32.768-78.071l80.896-103.962-110.69-110.699-103.735 80.742c-24.674-13.845-50.953-24.674-78.221-32.235l-16.35-130.624h-156.442l-16.272 130.24c-27.233 7.744-53.472 18.756-78.069 32.781l-103.965-80.905-110.688 110.699 80.743 103.731c-13.865 24.687-24.674 50.944-32.236 78.225l-130.625 16.346v156.442l130.243 16.272c7.753 27.242 18.754 53.453 32.771 78.068l-80.896 103.965 110.688 110.686 103.736-80.742c24.673 13.845 50.951 24.673 78.222 32.236zM572.919 592.102c-19.29 8.145-39.987 12.346-60.919 12.346-40.717 0-79.787-15.869-109.007-44.229-15.011-14.58-26.927-32.027-35.101-51.304-8.136-19.268-12.337-39.991-12.337-60.911 0-40.704 15.851-79.817 44.229-109.005 14.59-15.010 32.045-26.948 51.296-35.093 19.29-8.154 39.987-12.343 60.919-12.343 40.717 0 79.825 15.859 109.009 44.228 15.010 14.579 26.961 32.026 35.098 51.294 8.137 19.277 12.339 39.991 12.339 60.919 0 40.704-15.851 79.808-44.233 109.007-14.588 15.010-32.004 26.936-51.294 35.091z" />
<glyph unicode="&#xe952;" glyph-name="dispenser" d="M120.889 917.333c-43.202 0-78.223-35.024-78.223-78.222v-782.224c0-43.196 35.021-78.221 78.223-78.221h782.223c43.2 0 78.221 35.025 78.221 78.221v782.224c0 43.198-35.021 78.222-78.221 78.222h-782.223zM512 800l198.805-344.597c22.72-36.134 35.861-78.899 35.861-124.736 0-129.604-105.062-234.667-234.667-234.667-129.603 0-234.667 105.062-234.667 234.667 0 45.837 13.14 88.602 35.86 124.736l198.807 344.597z" />
<glyph unicode="&#xe953;" glyph-name="users_alt" d="M512 448.363c129.583 0 234.624 104.986 234.624 234.486s-105.041 234.484-234.624 234.484c-129.58 0-234.623-104.984-234.623-234.484s105.043-234.486 234.623-234.486zM981.248-5.013l0.085-16.32h-938.667l0.084 16.32c0 242.812 226.288 410.347 469.249 410.347s469.248-167.535 469.248-410.347z" />
<glyph unicode="&#xe954;" glyph-name="cell_lines" d="M853.333 704c0-47.128-38.204-85.333-85.333-85.333s-85.333 38.205-85.333 85.333c0 47.128 38.204 85.333 85.333 85.333s85.333-38.205 85.333-85.333zM768 490.667c-117.82 0-213.333 95.513-213.333 213.333s95.514 213.333 213.333 213.333c117.82 0 213.333-95.513 213.333-213.333s-95.514-213.333-213.333-213.333zM768 533.333c94.255 0 170.667 76.41 170.667 170.667s-76.412 170.667-170.667 170.667c-94.255 0-170.667-76.41-170.667-170.667s76.412-170.667 170.667-170.667zM512 345.924c25.178 41.783 60.292 76.898 102.076 102.076-41.783 25.178-76.898 60.292-102.076 102.077-25.178-41.784-60.292-76.899-102.077-102.077 41.785-25.178 76.899-60.292 102.077-102.076zM256 106.667c47.128 0 85.333 38.204 85.333 85.333s-38.205 85.333-85.333 85.333c-47.128 0-85.333-38.204-85.333-85.333s38.205-85.333 85.333-85.333zM469.333 192c0 117.82-95.513 213.333-213.333 213.333s-213.333-95.514-213.333-213.333c0-117.82 95.513-213.333 213.333-213.333s213.333 95.514 213.333 213.333zM426.667 192c0-94.255-76.41-170.667-170.667-170.667s-170.667 76.412-170.667 170.667c0 94.255 76.41 170.667 170.667 170.667s170.667-76.412 170.667-170.667zM853.333 192c0-47.13-38.204-85.333-85.333-85.333s-85.333 38.204-85.333 85.333c0 47.13 38.204 85.333 85.333 85.333s85.333-38.204 85.333-85.333zM768-21.333c-117.82 0-213.333 95.514-213.333 213.333s95.514 213.333 213.333 213.333c117.82 0 213.333-95.514 213.333-213.333s-95.514-213.333-213.333-213.333zM768 21.333c94.255 0 170.667 76.412 170.667 170.667s-76.412 170.667-170.667 170.667c-94.255 0-170.667-76.412-170.667-170.667s76.412-170.667 170.667-170.667zM256 618.667c47.128 0 85.333 38.205 85.333 85.333s-38.205 85.333-85.333 85.333c-47.128 0-85.333-38.205-85.333-85.333s38.205-85.333 85.333-85.333zM469.333 704c0 117.821-95.513 213.333-213.333 213.333s-213.333-95.513-213.333-213.333c0-117.821 95.513-213.333 213.333-213.333s213.333 95.513 213.333 213.333zM426.667 704c0-94.257-76.41-170.667-170.667-170.667s-170.667 76.41-170.667 170.667c0 94.257 76.41 170.667 170.667 170.667s170.667-76.41 170.667-170.667z" />
<glyph unicode="&#xe955;" glyph-name="archive" d="M67.66 728.994c-16.003-16.003-24.994-37.708-24.994-60.34v-604.654c0-47.13 38.205-85.333 85.333-85.333h768c47.13 0 85.333 38.204 85.333 85.333v604.654c0 22.632-8.99 44.337-24.994 60.34l-188.339 188.34h-512l-188.34-188.34zM298.667 832h426.667l128-128h-682.667l128 128zM426.667 576h170.667v-256h170.667l-256-256-256 256h170.667v256z" />
<glyph unicode="&#xe956;" glyph-name="copy" d="M725.333 917.333h-682.667v-682.667h170.667v512h512v170.667zM981.333 661.333h-682.667v-682.667h682.667v682.667zM426.667 533.333h426.667v-85.333h-426.667v85.333zM426.667 362.667h426.667v-85.333h-426.667v85.333zM682.667 192v-85.333h-256v85.333h256z" />
<glyph unicode="&#xe957;" glyph-name="create_derivative" d="M682.667 746.667c0-79.524-54.391-146.344-128-165.29v-90.71h298.667v-176.043c73.609-18.948 128-85.769 128-165.291 0-94.255-76.412-170.667-170.667-170.667s-170.667 76.412-170.667 170.667c0 79.522 54.391 146.342 128 165.291v90.709h-512v-90.709c73.61-18.948 128-85.769 128-165.291 0-94.255-76.41-170.667-170.667-170.667s-170.667 76.412-170.667 170.667c0 79.522 54.39 146.342 128 165.291v176.043h298.667v90.71c-73.61 18.946-128 85.766-128 165.29 0 94.257 76.41 170.667 170.667 170.667 94.255 0 170.667-76.41 170.667-170.667zM298.667 149.333c0 47.13-38.205 85.333-85.333 85.333s-85.333-38.204-85.333-85.333c0-47.13 38.205-85.333 85.333-85.333s85.333 38.204 85.333 85.333zM896 149.333c0 47.13-38.204 85.333-85.333 85.333s-85.333-38.204-85.333-85.333c0-47.13 38.204-85.333 85.333-85.333s85.333 38.204 85.333 85.333z" />
<glyph unicode="&#xe958;" glyph-name="download" d="M0-64v213.333h85.333v-128h853.333v128h85.333v-213.333h-1024zM213.333 405.333l298.667-298.667 298.667 298.667h-213.333v554.667h-170.667v-554.667h-213.333z" />
<glyph unicode="&#xe959;" glyph-name="New" d="M469.333 704v-213.333h-213.333v-85.333h213.333v-213.333h85.333v213.333h213.333v85.333h-213.333v213.333h-85.333zM512-64c-282.77 0-512 229.231-512 512s229.23 512 512 512c282.769 0 512-229.23 512-512s-229.231-512-512-512zM512 21.333c235.639 0 426.667 191.027 426.667 426.667 0 235.642-191.027 426.667-426.667 426.667-235.642 0-426.667-191.025-426.667-426.667 0-235.639 191.025-426.667 426.667-426.667z" />
<glyph unicode="&#xe95a;" glyph-name="share" d="M512-64c282.769 0 512 229.231 512 512s-229.231 512-512 512c-282.77 0-512-229.23-512-512s229.23-512 512-512zM810.667 704c0-70.692-57.306-128-128-128-41.877 0-79.053 20.108-102.409 51.196l-210.569-120.325c9.144-17.626 14.311-37.645 14.311-58.871s-5.167-41.246-14.311-58.871l210.569-120.324c23.356 31.087 60.531 51.196 102.409 51.196 70.694 0 128-57.306 128-128s-57.306-128-128-128c-70.694 0-128 57.306-128 128 0 7.915 0.717 15.663 2.095 23.185l-225.818 129.037c-21.066-15.241-46.956-24.222-74.944-24.222-70.692 0-128 57.306-128 128s57.308 128 128 128c27.988 0 53.878-8.983 74.944-24.222l225.818 129.038c-1.378 7.519-2.095 15.268-2.095 23.184 0 70.692 57.306 128 128 128s128-57.308 128-128z" />
<glyph unicode="&#xe95b;" glyph-name="upload" d="M512 960l298.667-298.667h-213.333v-554.667h-170.667v554.667h-213.333l298.667 298.667zM0 149.333v-213.333h1024v213.333h-85.333v-128h-853.333v128h-85.333z" />
<glyph unicode="&#xe95c;" glyph-name="icon_back" d="M170.667 504.889l227.556 227.556 85.333-85.333-142.222-142.222h512v-113.778h-512l142.222-142.222-85.333-85.333-227.556 227.556v113.778z" />
<glyph unicode="&#xe95d;" glyph-name="notification" d="M128 928h768c53.014 0 96-42.984 96-96v-768c0-53.014-42.986-96-96-96h-768c-53.016 0-96 42.986-96 96v768c0 53.016 42.984 96 96 96zM544 800h-64v-66.266c-108.563-15.531-192-108.89-192-221.734v-192h-32c-53.031 0-96-42.986-96-96v-32h704v32c0 53.014-42.97 96-96 96h-32v192c0 112.845-83.437 206.203-192 221.734v66.266zM448 160c0-35.344 28.656-64 64-64s64 28.656 64 64h-128z" />
</font>
</defs>
</svg>
